<?xml version="1.0" encoding="UTF-8" standalone="no"?>
<svg
   xmlns:dc="http://purl.org/dc/elements/1.1/"
   xmlns:cc="http://creativecommons.org/ns#"
   xmlns:rdf="http://www.w3.org/1999/02/22-rdf-syntax-ns#"
   xmlns:svg="http://www.w3.org/2000/svg"
   xmlns="http://www.w3.org/2000/svg"
   version="1.1"
   id="svg8567"
   viewBox="0 0 598.28666 184.75707"
   height="52.142551mm"
   width="168.84979mm">
  <defs
     id="defs8569">
    <clipPath
       clipPathUnits="userSpaceOnUse"
       id="clipPath9150">
      <path
         d="m 4237.6,871.309 c -136.15,0 -197.7,74.832 -197.7,138.111 -0.1,91.12 91.92,116.92 249.48,122.48 96.42,4.49 171.36,4.57 228.2,4.63 -7.23,-159.792 45.41,-265.221 -279.98,-265.221 z m 70.47,692.371 c -100.43,-0.14 -220.45,-18.96 -298.21,-79.57 -61.03,-47.57 62.41,-106.95 172.37,-55.43 27.07,12.69 65.33,23.7 104.65,23.84 169.12,1.12 225.05,-70.65 230.7,-189.6 -72.79,0 -152.19,-0.24 -251.94,-3.65 -268.92,-6.66 -401.68,-88.4 -401.52,-254.46 0.26,-145.669 140.78,-251.388 336.9,-251.388 217.1,0 431.6,41.449 431.6,41.449 61.11,61.109 51.99,498.339 51.99,498.339 -0.25,192.92 -165.45,270.71 -376.54,270.47 z M 1156.13,871.309 c -136.15,0 -197.712,74.832 -197.712,138.111 -0.098,91.12 91.922,116.92 249.492,122.48 96.43,4.49 171.36,4.57 228.2,4.63 -7.23,-159.792 45.42,-265.221 -279.98,-265.221 z m 70.48,692.371 c -100.45,-0.14 -220.47,-18.96 -298.231,-79.57 -61.02,-47.57 62.418,-106.95 172.371,-55.43 27.07,12.69 65.34,23.7 104.67,23.84 169.12,1.12 225.04,-70.65 230.69,-189.6 -72.8,0 -152.18,-0.24 -251.94,-3.65 -268.936,-6.66 -401.69,-88.4 -401.533,-254.46 0.254,-145.669 140.781,-251.388 336.903,-251.388 217.12,0 431.62,41.449 431.62,41.449 61.1,61.109 51.99,498.339 51.99,498.339 -0.26,192.92 -165.46,270.71 -376.54,270.47 z m 2183.41,-356.72 -236.18,-0.31 0,221.9 243.39,0 c 91.99,0.06 178.61,-9.33 178.82,-102.61 0.06,-93.17 -84.25,-118.92 -186.03,-118.98 z m 362.93,115.96 c -0.18,153.3 -127.83,232.36 -298.16,232.18 l -474.53,0 0,-773.44 173.58,0 0,305.05 210.22,0.11 c 157.05,-1.99 212.87,-36.15 212.87,-182.742 l 0,-122.418 176.02,0 0,141.469 c 0,112.301 -22.6,181.641 -117.4,210.041 72.07,42.21 117.65,109.88 117.4,189.75 z m 1409.32,240.76 c -220.75,-0.23 -385.38,-109.96 -384.98,-333.92 l 0,-448.1 162.94,0 0,448.1 c -0.07,125.38 76.41,202.9 222.25,203.08 145.74,0.23 223.2,-77.6 223.5,-203.08 l 0,-448.1 162.95,0 0,448.1 c -0.28,224 -165.9,334.45 -386.66,333.92 z m -3055.55,-135.13 168.01,0 c 126.97,0 127.36,-0.06 127.36,-123.76 0,-22.48 0,-523.13 0,-523.13 l 173.55,0 c 0,0 0,500.22 0,523.13 0,123.7 -0.32,123.76 124.43,123.76 l 169.71,0 0,126.55 -763.06,0 0,-126.55 z m -255.61,-347.92 c 0,61.68 0,474.47 0,474.47 l -173.62,0 c 0,0 0,-524.94 0,-599.94 0,-174 173.62,-173.5 173.62,-173.5 l 425.94,0 0,126.449 -253.32,0 c -172.62,0 -172.62,0.172 -172.62,172.521"
         id="path9152" />
    </clipPath>
    <linearGradient
       x1="0"
       y1="0"
       x2="1"
       y2="0"
       gradientUnits="userSpaceOnUse"
       gradientTransform="matrix(-4786.29,4.184e-4,4.184e-4,4786.29,5568.93,1158.55)"
       spreadMethod="pad"
       id="linearGradient9154">
      <stop
         style="stop-opacity:1;stop-color:#42a9e4"
         offset="0"
         id="stop9156" />
      <stop
         style="stop-opacity:1;stop-color:#2375c5"
         offset="0.45"
         id="stop9158" />
      <stop
         style="stop-opacity:1;stop-color:#353481"
         offset="1"
         id="stop9160" />
    </linearGradient>
  </defs>
  <metadata
     id="metadata8572">
    <rdf:RDF>
      <cc:Work
         rdf:about="">
        <dc:format>image/svg+xml</dc:format>
        <dc:type
           rdf:resource="http://purl.org/dc/dcmitype/StillImage" />
        <dc:title />
      </cc:Work>
    </rdf:RDF>
  </metadata>
  <g
     transform="translate(-76.852004,-184.5781)"
     id="layer1">
    <g
       style="fill:#007eaf;fill-opacity:1"
       id="g9142"
       transform="matrix(1.25,0,0,-1.25,-20.977604,380.03834)">
      <g
         style="fill:#007eaf;fill-opacity:1"
         id="g9144"
         transform="scale(0.1,0.1)">
        <g
           style="fill:#007eaf;fill-opacity:1"
           id="g9146">
          <g
             style="fill:#007eaf;fill-opacity:1"
             id="g9148"
             clip-path="url(#clipPath9150)">
            <path
               d="m 4237.6,871.309 c -136.15,0 -197.7,74.832 -197.7,138.111 -0.1,91.12 91.92,116.92 249.48,122.48 96.42,4.49 171.36,4.57 228.2,4.63 -7.23,-159.792 45.41,-265.221 -279.98,-265.221 z m 70.47,692.371 c -100.43,-0.14 -220.45,-18.96 -298.21,-79.57 -61.03,-47.57 62.41,-106.95 172.37,-55.43 27.07,12.69 65.33,23.7 104.65,23.84 169.12,1.12 225.05,-70.65 230.7,-189.6 -72.79,0 -152.19,-0.24 -251.94,-3.65 -268.92,-6.66 -401.68,-88.4 -401.52,-254.46 0.26,-145.669 140.78,-251.388 336.9,-251.388 217.1,0 431.6,41.449 431.6,41.449 61.11,61.109 51.99,498.339 51.99,498.339 -0.25,192.92 -165.45,270.71 -376.54,270.47 z M 1156.13,871.309 c -136.15,0 -197.712,74.832 -197.712,138.111 -0.098,91.12 91.922,116.92 249.492,122.48 96.43,4.49 171.36,4.57 228.2,4.63 -7.23,-159.792 45.42,-265.221 -279.98,-265.221 z m 70.48,692.371 c -100.45,-0.14 -220.47,-18.96 -298.231,-79.57 -61.02,-47.57 62.418,-106.95 172.371,-55.43 27.07,12.69 65.34,23.7 104.67,23.84 169.12,1.12 225.04,-70.65 230.69,-189.6 -72.8,0 -152.18,-0.24 -251.94,-3.65 -268.936,-6.66 -401.69,-88.4 -401.533,-254.46 0.254,-145.669 140.781,-251.388 336.903,-251.388 217.12,0 431.62,41.449 431.62,41.449 61.1,61.109 51.99,498.339 51.99,498.339 -0.26,192.92 -165.46,270.71 -376.54,270.47 z m 2183.41,-356.72 -236.18,-0.31 0,221.9 243.39,0 c 91.99,0.06 178.61,-9.33 178.82,-102.61 0.06,-93.17 -84.25,-118.92 -186.03,-118.98 z m 362.93,115.96 c -0.18,153.3 -127.83,232.36 -298.16,232.18 l -474.53,0 0,-773.44 173.58,0 0,305.05 210.22,0.11 c 157.05,-1.99 212.87,-36.15 212.87,-182.742 l 0,-122.418 176.02,0 0,141.469 c 0,112.301 -22.6,181.641 -117.4,210.041 72.07,42.21 117.65,109.88 117.4,189.75 z m 1409.32,240.76 c -220.75,-0.23 -385.38,-109.96 -384.98,-333.92 l 0,-448.1 162.94,0 0,448.1 c -0.07,125.38 76.41,202.9 222.25,203.08 145.74,0.23 223.2,-77.6 223.5,-203.08 l 0,-448.1 162.95,0 0,448.1 c -0.28,224 -165.9,334.45 -386.66,333.92 z m -3055.55,-135.13 168.01,0 c 126.97,0 127.36,-0.06 127.36,-123.76 0,-22.48 0,-523.13 0,-523.13 l 173.55,0 c 0,0 0,500.22 0,523.13 0,123.7 -0.32,123.76 124.43,123.76 l 169.71,0 0,126.55 -763.06,0 0,-126.55 z m -255.61,-347.92 c 0,61.68 0,474.47 0,474.47 l -173.62,0 c 0,0 0,-524.94 0,-599.94 0,-174 173.62,-173.5 173.62,-173.5 l 425.94,0 0,126.449 -253.32,0 c -172.62,0 -172.62,0.172 -172.62,172.521"
               style="fill:#007eaf;fill-opacity:1;fill-rule:nonzero;stroke:none"
               id="path9162" />
          </g>
        </g>
      </g>
    </g>
    <text
       id="text19065"
       y="355.01196"
       x="80.65818"
       style="font-style:normal;font-variant:normal;font-weight:normal;font-stretch:normal;font-size:68.06014252px;line-height:125%;font-family:Arial;-inkscape-font-specification:'Arial, Normal';text-align:start;letter-spacing:0px;word-spacing:0px;writing-mode:lr-tb;text-anchor:start;fill:#007eaf;fill-opacity:1;stroke:none;stroke-width:1px;stroke-linecap:butt;stroke-linejoin:miter;stroke-opacity:1"
       xml:space="preserve"><tspan
         id="tspan19067"
         y="355.01196"
         x="80.65818"><tspan
           id="tspan19069"
           y="355.01196"
           x="80.65818">Intelligent Systems.</tspan></tspan></text>
  </g>
</svg>
